<svg width="619" height="620" viewBox="0 0 619 620" fill="none" xmlns="http://www.w3.org/2000/svg">
<rect width="619" height="620" fill="#160F35"/>
<path d="M143.164 300V188.175H87.1636V174H213.164V188.175H157.339V300H143.164ZM243.227 300C239.377 300 235.818 299.067 232.552 297.2C229.402 295.217 226.835 292.65 224.852 289.5C222.985 286.233 222.052 282.675 222.052 278.825V242.075H310.952V219.675C310.952 217.808 310.252 216.233 308.852 214.95C307.568 213.55 305.993 212.85 304.127 212.85H222.052V198.5H304.127C308.093 198.5 311.652 199.492 314.802 201.475C318.068 203.342 320.635 205.908 322.502 209.175C324.485 212.325 325.477 215.825 325.477 219.675V300H243.227ZM243.227 285.65H310.952V256.425H236.402V278.825C236.402 280.692 237.043 282.325 238.327 283.725C239.727 285.008 241.36 285.65 243.227 285.65ZM339.206 300V219.675C339.206 215.825 340.139 212.325 342.006 209.175C343.989 205.908 346.556 203.342 349.706 201.475C352.973 199.492 356.531 198.5 360.381 198.5H417.431V212.85H360.381C358.514 212.85 356.881 213.55 355.481 214.95C354.198 216.233 353.556 217.808 353.556 219.675V300H339.206ZM446.607 300C442.757 300 439.198 299.067 435.932 297.2C432.782 295.217 430.215 292.65 428.232 289.5C426.365 286.233 425.432 282.675 425.432 278.825V198.5H439.782V278.825C439.782 280.692 440.423 282.325 441.707 283.725C443.107 285.008 444.74 285.65 446.607 285.65H507.507C509.373 285.65 511.007 285.008 512.407 283.725C513.807 282.325 514.507 280.692 514.507 278.825V198.5H528.857V278.825C528.857 282.675 527.865 286.233 525.882 289.5C524.015 292.65 521.448 295.217 518.182 297.2C515.032 299.067 511.473 300 507.507 300H446.607ZM130.476 454V342.175H74.4761V328H200.476V342.175H144.651V454H130.476ZM230.364 454C226.514 454 222.956 453.067 219.689 451.2C216.539 449.217 213.972 446.65 211.989 443.5C210.122 440.233 209.189 436.675 209.189 432.825V373.675C209.189 369.825 210.122 366.325 211.989 363.175C213.972 359.908 216.539 357.342 219.689 355.475C222.956 353.492 226.514 352.5 230.364 352.5H291.264C295.231 352.5 298.789 353.492 301.939 355.475C305.206 357.342 307.772 359.908 309.639 363.175C311.622 366.325 312.614 369.825 312.614 373.675V410.425H223.539V432.825C223.539 434.692 224.181 436.325 225.464 437.725C226.864 439.008 228.497 439.65 230.364 439.65H312.614V454H230.364ZM223.539 396.075H298.089V373.675C298.089 371.808 297.389 370.233 295.989 368.95C294.706 367.55 293.131 366.85 291.264 366.85H230.364C228.497 366.85 226.864 367.55 225.464 368.95C224.181 370.233 223.539 371.808 223.539 373.675V396.075ZM344.613 454C340.763 454 337.205 453.067 333.938 451.2C330.788 449.217 328.222 446.65 326.238 443.5C324.372 440.233 323.438 436.675 323.438 432.825V373.675C323.438 369.825 324.372 366.325 326.238 363.175C328.222 359.908 330.788 357.342 333.938 355.475C337.205 353.492 340.763 352.5 344.613 352.5H426.513V366.85H344.613C342.747 366.85 341.113 367.55 339.713 368.95C338.43 370.233 337.788 371.808 337.788 373.675V432.825C337.788 434.692 338.43 436.325 339.713 437.725C341.113 439.008 342.747 439.65 344.613 439.65H426.863V454H344.613ZM439.579 454V319.25H453.929V352.5H521.829C525.679 352.5 529.179 353.492 532.329 355.475C535.596 357.342 538.163 359.908 540.029 363.175C542.013 366.325 543.004 369.825 543.004 373.675V454H528.654V373.675C528.654 371.808 527.954 370.233 526.554 368.95C525.271 367.55 523.696 366.85 521.829 366.85H460.929C459.063 366.85 457.429 367.55 456.029 368.95C454.629 370.233 453.929 371.808 453.929 373.675V454H439.579Z" fill="white"/>
</svg>
