<svg width="1198" height="630" viewBox="0 0 1198 630" fill="none" xmlns="http://www.w3.org/2000/svg">
<rect width="1198" height="630" fill="#160F35"/>
<path d="M173.049 382V270.175H117.049V256H243.049V270.175H187.224V382H173.049ZM273.112 382C269.262 382 265.704 381.067 262.437 379.2C259.287 377.217 256.721 374.65 254.737 371.5C252.871 368.233 251.937 364.675 251.937 360.825V324.075H340.837V301.675C340.837 299.808 340.137 298.233 338.737 296.95C337.454 295.55 335.879 294.85 334.012 294.85H251.937V280.5H334.012C337.979 280.5 341.537 281.492 344.687 283.475C347.954 285.342 350.521 287.908 352.387 291.175C354.371 294.325 355.362 297.825 355.362 301.675V382H273.112ZM273.112 367.65H340.837V338.425H266.287V360.825C266.287 362.692 266.929 364.325 268.212 365.725C269.612 367.008 271.246 367.65 273.112 367.65ZM369.092 382V301.675C369.092 297.825 370.025 294.325 371.892 291.175C373.875 287.908 376.442 285.342 379.592 283.475C382.858 281.492 386.417 280.5 390.267 280.5H447.317V294.85H390.267C388.4 294.85 386.767 295.55 385.367 296.95C384.083 298.233 383.442 299.808 383.442 301.675V382H369.092ZM476.492 382C472.642 382 469.084 381.067 465.817 379.2C462.667 377.217 460.101 374.65 458.117 371.5C456.251 368.233 455.317 364.675 455.317 360.825V280.5H469.667V360.825C469.667 362.692 470.309 364.325 471.592 365.725C472.992 367.008 474.626 367.65 476.492 367.65H537.392C539.259 367.65 540.892 367.008 542.292 365.725C543.692 364.325 544.392 362.692 544.392 360.825V280.5H558.742V360.825C558.742 364.675 557.751 368.233 555.767 371.5C553.901 374.65 551.334 377.217 548.067 379.2C544.917 381.067 541.359 382 537.392 382H476.492ZM667.903 382V270.175H611.903V256H737.903V270.175H682.078V382H667.903ZM767.791 382C763.941 382 760.383 381.067 757.116 379.2C753.966 377.217 751.399 374.65 749.416 371.5C747.549 368.233 746.616 364.675 746.616 360.825V301.675C746.616 297.825 747.549 294.325 749.416 291.175C751.399 287.908 753.966 285.342 757.116 283.475C760.383 281.492 763.941 280.5 767.791 280.5H828.691C832.658 280.5 836.216 281.492 839.366 283.475C842.633 285.342 845.199 287.908 847.066 291.175C849.049 294.325 850.041 297.825 850.041 301.675V338.425H760.966V360.825C760.966 362.692 761.608 364.325 762.891 365.725C764.291 367.008 765.924 367.65 767.791 367.65H850.041V382H767.791ZM760.966 324.075H835.516V301.675C835.516 299.808 834.816 298.233 833.416 296.95C832.133 295.55 830.558 294.85 828.691 294.85H767.791C765.924 294.85 764.291 295.55 762.891 296.95C761.608 298.233 760.966 299.808 760.966 301.675V324.075ZM882.04 382C878.19 382 874.632 381.067 871.365 379.2C868.215 377.217 865.648 374.65 863.665 371.5C861.798 368.233 860.865 364.675 860.865 360.825V301.675C860.865 297.825 861.798 294.325 863.665 291.175C865.648 287.908 868.215 285.342 871.365 283.475C874.632 281.492 878.19 280.5 882.04 280.5H963.94V294.85H882.04C880.173 294.85 878.54 295.55 877.14 296.95C875.857 298.233 875.215 299.808 875.215 301.675V360.825C875.215 362.692 875.857 364.325 877.14 365.725C878.54 367.008 880.173 367.65 882.04 367.65H964.29V382H882.04ZM977.006 382V247.25H991.356V280.5H1059.26C1063.11 280.5 1066.61 281.492 1069.76 283.475C1073.02 285.342 1075.59 287.908 1077.46 291.175C1079.44 294.325 1080.43 297.825 1080.43 301.675V382H1066.08V301.675C1066.08 299.808 1065.38 298.233 1063.98 296.95C1062.7 295.55 1061.12 294.85 1059.26 294.85H998.356C996.489 294.85 994.856 295.55 993.456 296.95C992.056 298.233 991.356 299.808 991.356 301.675V382H977.006Z" fill="white"/>
</svg>
